# xmcd
# 
# Track frame offsets:
#     150
#     6194
#     22851
#     41528
#     59457
#     81682
#     99211
#     119477
#     138304
#     150910
#     167447
#     187142
#     199265
# 
# Disc length: 2814
# 
# Revision: 0
# Processed by: cddbd v1.5.2PL0 Copyright (c) Steve Scherf et al.
# Submitted via: fre:ac v1.0.27
# 
DISCID=a40afc0d
DTITLE=tuXedo - Flowerfield Melodies
DYEAR=2013
DGENRE=Alpencore
TTITLE0=Intro
TTITLE1=Anger
TTITLE2=Ignorance
TTITLE3=Booom
TTITLE4=World Of Deadhearted
TTITLE5=Rethink Your Choice
TTITLE6=Fight
TTITLE7=Social Scum
TTITLE8=I'm Always Here
TTITLE9=Deambula
TTITLE10=Self-Absorbed Folk
TTITLE11=Dying Sheep
TTITLE12=Self-Polka
EXTD=
EXTT0=
EXTT1=
EXTT2=
EXTT3=
EXTT4=
EXTT5=
EXTT6=
EXTT7=
EXTT8=
EXTT9=
EXTT10=
EXTT11=
EXTT12=
PLAYORDER=
